<svg width="170" height="117" viewBox="0 0 170 117" fill="none" xmlns="http://www.w3.org/2000/svg">
<path d="M120.601 41.1598V39.0251V15.8346C120.601 6.13152 119.436 4.96714 108.957 4.96714V4.1909H141.763C158.646 4.1909 169.999 11.7593 169.999 23.112C169.999 33.5913 158.161 41.936 143.703 41.936H141.471L128.46 41.3538V50.7659C128.46 60.566 129.625 61.6334 140.104 61.6334L139.958 62.6625H108.811L108.957 61.6334C111.006 61.6334 112.699 61.8376 114.097 61.6987C119.847 61.127 120.601 58.6495 120.601 50.7659V41.1598ZM126.423 7.10183V7.29589C128.072 9.04245 128.46 11.6623 128.46 16.0287V39.0251H141.277C152.339 39.0251 161.363 31.9418 161.363 23.112C161.363 13.5059 152.533 7.10183 139.337 7.10183H126.423Z" fill="#258AD2"/>
<path d="M0 73.3358C0 47.9135 23.1906 27.1487 51.8149 27.1487C54.9199 27.1487 57.9279 27.5368 60.9359 28.022L74.7143 0.562035H75.1025C75.1025 3.47298 76.849 4.4433 81.6036 4.4433C81.7006 5.51065 81.8947 7.25722 82.865 9.19785L104.794 55.773C106.347 59.1691 107.511 61.3038 111.198 61.789L114.012 62.1771V62.6623H90.5305V62.1771L99.7485 61.0127V60.8187C98.3901 60.3335 97.5168 58.781 96.7405 57.0344C89.8513 43.0619 77.0431 34.232 61.9062 31.7092L50.5535 54.2205C50.0683 55.1908 49.7772 56.1612 49.7772 57.0344C49.7772 59.3632 51.4268 61.4009 54.2407 61.692L58.8982 62.1771V62.6623H37.3572V62.1771L40.0741 61.789C43.3731 61.4009 45.6049 58.3929 47.4485 54.8027L59.1893 31.3211C57.0546 31.03 54.8229 30.9329 52.5911 30.9329C24.8401 30.9329 2.32876 49.9511 2.32876 73.3358C2.32876 96.1382 21.8321 114.477 45.896 114.477C60.4507 114.477 72.2886 104.968 72.2886 93.2272C72.2886 83.0389 65.1082 74.6942 54.7258 71.104C67.437 72.2684 77.3342 81.7775 77.3342 93.5183C77.3342 106.521 63.2646 117 45.993 117C20.5707 117 0 97.4966 0 73.3358ZM63.4587 28.5071C74.4233 30.8359 84.0294 36.5608 91.0157 45.0996L75.1025 11.0415C74.4233 9.78004 74.4233 8.03347 74.4233 6.77206H73.744C73.744 7.54831 73.3559 8.80972 72.3856 10.8474L63.4587 28.5071Z" fill="#258AD2"/>
</svg>
